<svg xmlns="http://www.w3.org/2000/svg" preserveAspectRatio="xMidYMid" width="20" height="20" viewBox="0 0 20 20"><defs><style>.cls-2 { fill: #000000; opacity: 0.3; }</style></defs><path d="M17.93 11c-.45 3.615-3.317 6.452-6.93 6.907V20H9v-2.093C5.387 17.452 2.52 14.615 2.07 11H0V9h2.07C2.52 5.385 5.386 2.548 9 2.093V0h2v2.093c3.613.455 6.48 3.292 6.93 6.907H20v2h-2.07zM10 3.844C6.6 3.844 3.844 6.6 3.844 10S6.6 16.156 10 16.156 16.156 13.4 16.156 10 13.4 3.844 10 3.844zM10 12c-1.105 0-2-.895-2-2s.895-2 2-2 2 .895 2 2-.895 2-2 2z" id="path-1" class="cls-2" fill-rule="evenodd"/></svg>