<svg xmlns="http://www.w3.org/2000/svg" preserveAspectRatio="xMidYMid" width="16" height="16" viewBox="0 0 16 16"><defs><style>.cls-2 { fill: #000000; opacity: 0.3; }</style></defs><path d="M15.992 14.6l-1.398 1.398-3.56-3.56c-1.154.86-2.57 1.39-4.12 1.39C3.094 13.828 0 10.732 0 6.912 0 3.092 3.094-.003 6.913-.003c3.82 0 6.916 3.096 6.916 6.915 0 1.555-.532 2.974-1.398 4.13l3.56 3.558zM6.89 1.984c-2.722 0-4.928 2.207-4.928 4.928 0 2.722 2.206 4.928 4.928 4.928 2.72 0 4.927-2.206 4.927-4.928 0-2.72-2.206-4.928-4.927-4.928z" id="path-1" class="cls-2" fill-rule="evenodd"/></svg>