<?xml version="1.0" encoding="UTF-8" standalone="no"?>
<svg width="780px" height="372px" viewBox="0 0 780 372" version="1.1" xmlns="http://www.w3.org/2000/svg" xmlns:xlink="http://www.w3.org/1999/xlink">
    <!-- Generator: Sketch 3.6.1 (26313) - http://www.bohemiancoding.com/sketch -->
    <title>context_ico</title>
    <desc>Created with Sketch.</desc>
    <defs></defs>
    <g id="Page-1" stroke="none" stroke-width="1" fill="none" fill-rule="evenodd">
        <g id="Desktop-HD" transform="translate(-330.000000, -828.000000)">
            <g id="context_ico" transform="translate(359.000000, 828.000000)">
                <g id="Group-2-Copy-4" transform="translate(0.000000, 101.000000)">
                    <rect id="Rectangle-15" fill="#0050FF" x="38" y="0" width="290.773437" height="26"></rect>
                    <rect id="Rectangle-15-Copy-3" fill="#C3C3C3" x="0" y="0" width="28" height="26"></rect>
                    <rect id="Rectangle-15-Copy" fill="#84B27A" x="38" y="36" width="80.4602528" height="14"></rect>
                    <rect id="Rectangle-15-Copy-12" fill="#84B27A" x="126.755124" y="36" width="80.4602528" height="14"></rect>
                    <rect id="Rectangle-15-Copy-13" fill="#84B27A" x="215.510249" y="36" width="47.2807671" height="14"></rect>
                    <rect id="Rectangle-15-Copy-2" fill="#ACACAC" x="38" y="62" width="283.167694" height="16"></rect>
                    <rect id="Rectangle-15-Copy-4" fill="#ACACAC" x="38" y="86" width="260.935519" height="16"></rect>
                </g>
                <g id="Group-2-Copy-5" transform="translate(0.000000, 230.000000)">
                    <rect id="Rectangle-15" fill="#0050FF" x="38" y="0" width="290.773437" height="26"></rect>
                    <rect id="Rectangle-15-Copy-3" fill="#C3C3C3" x="0" y="0" width="28" height="26"></rect>
                    <rect id="Rectangle-15-Copy" fill="#84B27A" x="38" y="36" width="80.4602528" height="14"></rect>
                    <rect id="Rectangle-15-Copy-12" fill="#84B27A" x="126.755124" y="36" width="80.4602528" height="14"></rect>
                    <rect id="Rectangle-15-Copy-13" fill="#84B27A" x="215.510249" y="36" width="47.2807671" height="14"></rect>
                    <rect id="Rectangle-15-Copy-2" fill="#ACACAC" x="38" y="62" width="283.167694" height="16"></rect>
                    <rect id="Rectangle-15-Copy-4" fill="#ACACAC" x="38" y="86" width="260.935519" height="16"></rect>
                </g>
                <g id="Group-2" transform="translate(37.000000, 0.000000)">
                    <path d="M0,0 L654.617332,0 L689,35.175 L654.617332,70 L0,70 L0,0 Z" id="Rectangle-3" fill="#FFDD3A"></path>
                    <rect id="Rectangle-1" fill="#FFFFFF" x="4" y="4" width="526" height="62"></rect>
                    <text id="Найти" font-family="ArialMT, Arial" font-size="20" font-weight="normal" letter-spacing="1.11111104" fill="#000000">
                        <tspan x="570" y="40">Найти</tspan>
                    </text>
                    <text id="фильм" font-family="ArialMT, Arial" font-size="24" font-weight="normal" fill="#000000">
                        <tspan x="23" y="42">фильм</tspan>
                    </text>
                </g>
                <rect id="Rectangle-62" fill="#D8D8D8" x="379" y="102" width="329" height="102"></rect>
                <text id="Фото" font-family="Arial-BoldMT, Arial" font-size="18" font-weight="bold" fill="#000000">
                    <tspan x="379.415527" y="245">Фото</tspan>
                </text>
                <rect id="Rectangle-62" fill="#D8D8D8" x="379" y="265" width="145" height="106"></rect>
                <rect id="Rectangle-62-Copy" fill="#D8D8D8" x="534" y="265" width="91" height="47.3195876"></rect>
                <path d="M534,322.051546 L606.5,322.051546 L606.5,371.474227 L534,371.474227 L534,322.051546 Z" id="Rectangle-62-Copy-2" fill="#D8D8D8"></path>
                <path d="M617,322 L689.5,322 L689.5,371.42268 L617,371.42268 L617,322 Z" id="Rectangle-62-Copy-3" fill="#D8D8D8"></path>
                <text id="Трейлер" font-family="Arial-BoldMT, Arial" font-size="18" font-weight="bold" fill="#000000">
                    <tspan x="502" y="160">Трейлер</tspan>
                </text>
            </g>
        </g>
    </g>
</svg>