<?xml version="1.0" encoding="UTF-8" standalone="no"?>
<svg width="780px" height="352px" viewBox="0 0 780 352" version="1.1" xmlns="http://www.w3.org/2000/svg" xmlns:xlink="http://www.w3.org/1999/xlink">
    <!-- Generator: Sketch 3.6.1 (26313) - http://www.bohemiancoding.com/sketch -->
    <title>pokus_ico</title>
    <desc>Created with Sketch.</desc>
    <defs></defs>
    <g id="Page-1" stroke="none" stroke-width="1" fill="none" fill-rule="evenodd">
        <g id="Desktop-HD" transform="translate(-330.000000, -1351.000000)">
            <g id="pokus_ico" transform="translate(344.000000, 1351.000000)">
                <g id="Group-3">
                    <g id="Group-2-Copy-2" transform="translate(20.000000, 20.000000)">
                        <rect id="Rectangle-15" fill="#0050FF" x="38" y="0" width="290.773437" height="26"></rect>
                        <rect id="Rectangle-15-Copy-3" fill="#C3C3C3" x="0" y="0" width="28" height="26"></rect>
                        <rect id="Rectangle-15-Copy" fill="#84B27A" x="38" y="36" width="80.4602528" height="14"></rect>
                        <rect id="Rectangle-15-Copy-12" fill="#84B27A" x="126.755124" y="36" width="80.4602528" height="14"></rect>
                        <rect id="Rectangle-15-Copy-13" fill="#84B27A" x="215.510249" y="36" width="47.2807671" height="14"></rect>
                        <rect id="Rectangle-15-Copy-2" fill="#ACACAC" x="38" y="62" width="283.167694" height="16"></rect>
                        <rect id="Rectangle-15-Copy-4" fill="#ACACAC" x="38" y="86" width="260.935519" height="16"></rect>
                        <rect id="Rectangle-15-Copy-5" fill="#ACACAC" x="38" y="110" width="270.881492" height="16"></rect>
                    </g>
                    <rect id="Rectangle-61" fill="#FF4E4E" opacity="0.12838153" x="0" y="0" width="370" height="327"></rect>
                    <g id="Group-2-Copy-3" transform="translate(20.000000, 166.000000)">
                        <rect id="Rectangle-15" fill="#0050FF" x="38" y="0" width="290.773437" height="26"></rect>
                        <rect id="Rectangle-15-Copy-3" fill="#C3C3C3" x="0" y="0" width="28" height="26"></rect>
                        <rect id="Rectangle-15-Copy" fill="#84B27A" x="38" y="36" width="80.4602528" height="14"></rect>
                        <rect id="Rectangle-15-Copy-12" fill="#84B27A" x="126.755124" y="36" width="80.4602528" height="14"></rect>
                        <rect id="Rectangle-15-Copy-13" fill="#84B27A" x="215.510249" y="36" width="47.2807671" height="14"></rect>
                        <rect id="Rectangle-15-Copy-2" fill="#ACACAC" x="38" y="62" width="283.167694" height="16"></rect>
                        <rect id="Rectangle-15-Copy-4" fill="#ACACAC" x="38" y="86" width="260.935519" height="16"></rect>
                        <rect id="Rectangle-15-Copy-5" fill="#ACACAC" x="38" y="110" width="270.881492" height="16"></rect>
                    </g>
                </g>
                <g id="Group-5" transform="translate(393.000000, 20.000000)">
                    <g id="Group-3-Copy-2">
                        <rect id="Rectangle-15-Copy-6" fill="#0050FF" x="38" y="0" width="290.773437" height="26"></rect>
                        <rect id="Rectangle-15-Copy-7" fill="#C3C3C3" x="0" y="0" width="28" height="26"></rect>
                        <rect id="Rectangle-15-Copy-8" fill="#CACACA" x="38" y="46" width="126" height="14"></rect>
                        <rect id="Rectangle-15-Copy-9" fill="#ACACAC" x="38" y="82" width="283.167694" height="16"></rect>
                        <rect id="Rectangle-15-Copy-10" fill="#ACACAC" x="38" y="106" width="260.935519" height="16"></rect>
                        <rect id="Rectangle-15-Copy-11" fill="#ACACAC" x="38" y="130" width="270.881492" height="16"></rect>
                    </g>
                    <g id="Group-3-Copy-3" transform="translate(0.000000, 186.000000)">
                        <rect id="Rectangle-15-Copy-6" fill="#0050FF" x="38" y="0" width="290.773437" height="26"></rect>
                        <rect id="Rectangle-15-Copy-7" fill="#C3C3C3" x="0" y="0" width="28" height="26"></rect>
                        <rect id="Rectangle-15-Copy-8" fill="#CACACA" x="38" y="46" width="126" height="14"></rect>
                        <rect id="Rectangle-15-Copy-9" fill="#ACACAC" x="38" y="82" width="283.167694" height="16"></rect>
                        <rect id="Rectangle-15-Copy-10" fill="#ACACAC" x="38" y="106" width="260.935519" height="16"></rect>
                        <rect id="Rectangle-15-Copy-11" fill="#ACACAC" x="38" y="130" width="270.881492" height="16"></rect>
                    </g>
                </g>
            </g>
        </g>
    </g>
</svg>