<?xml version="1.0" encoding="UTF-8" standalone="no"?>
<svg width="780px" height="410px" viewBox="0 0 780 410" version="1.1" xmlns="http://www.w3.org/2000/svg" xmlns:xlink="http://www.w3.org/1999/xlink">
    <!-- Generator: Sketch 3.6.1 (26313) - http://www.bohemiancoding.com/sketch -->
    <title>straight_ico</title>
    <desc>Created with Sketch.</desc>
    <defs></defs>
    <g id="Page-1" stroke="none" stroke-width="1" fill="none" fill-rule="evenodd">
        <g id="Desktop-HD" transform="translate(-330.000000, -276.000000)">
            <g id="straight_ico" transform="translate(480.000000, 276.000000)">
                <g id="monitor" transform="translate(17.000000, 0.000000)">
                    <rect id="Rectangle-3" fill="#505050" x="180" y="225" width="83" height="70"></rect>
                    <rect id="Rectangle-3-Copy" fill="#505050" x="146" y="296" width="151" height="10" rx="100"></rect>
                    <rect id="Rectangle-1" fill="#5D5D5D" x="0" y="0" width="446" height="268" rx="9"></rect>
                    <rect id="Rectangle-1-Copy" fill="#FFFFFF" x="15" y="15" width="416" height="238"></rect>
                    <g id="Group" transform="translate(30.000000, 31.000000)">
                        <path d="M0,0 L149.173184,0 L158,9.5390625 L149.173184,19 L0,19 L0,0 Z" id="Rectangle-9" fill="#FFE400"></path>
                        <rect id="Rectangle-10" fill="#EBEBEB" x="0" y="34" width="110.4375" height="34"></rect>
                        <rect id="Rectangle-10-Copy-4" fill="#A7A7A7" x="120" y="34" width="110.4375" height="100"></rect>
                        <rect id="Rectangle-10-Copy" fill="#EBEBEB" x="0" y="78" width="110.4375" height="34"></rect>
                        <rect id="Rectangle-10-Copy-2" fill="#EBEBEB" x="0" y="122" width="110.4375" height="34"></rect>
                        <rect id="Rectangle-10-Copy-3" fill="#EBEBEB" x="0" y="166" width="110.4375" height="34"></rect>
                    </g>
                </g>
                <path d="M222.841797,64.2050781 L222.841797,64.2050781 C211.548238,64.2050781 202.392999,77.196879 202.392999,93.2126216 L202.392999,119.468785 L181.144531,156.035156 L196.970607,156.035156 L196.970607,209.227306 L247.103516,207.607422 L247.103516,244.588411 L311.539084,244.588411 L311.539084,183.305288 L283.953125,62.0371094 L222.841797,64.2050781 Z" id="Path-2" fill="#FFED6C"></path>
                <rect id="Rectangle-8" fill="#FFED6C" x="331" y="361" width="66" height="48"></rect>
                <path d="M229.748047,113.582031 C267.250002,107.425781 258.515624,153.914062 242.40039,158.464844 C242.40039,174.40625 242.400391,182.473179 242.400391,182.473179 C242.400392,188.543708 247.316035,193.624724 253.398586,193.822557 L298.919585,195.303117 C327.070117,196.218706 349.890632,174.134774 349.890632,145.966832 L349.890632,78.9581627 C349.890632,70.1231392 342.73336,62.9609375 337.617189,62.9609375 L337.617189,62.9609375 L337.617189,62.9609375 C333.105066,46.8734868 315.564241,33.8320312 298.451962,33.8320312 L254.843815,33.8320312 C234.957214,33.8320312 218.607041,49.9385386 218.324418,69.8253788 L217.3125,141.029297 L205.242187,162.027344 L195.242189,162.027344 C172.597656,162.027344 154.871093,202.65625 183.013672,223.521484 C211.15625,244.386719 243.400393,224.453125 248.115234,207.183594 C236.895509,207.183594 229.748048,197.479492 229.748046,187.582031 C229.748044,177.68457 229.748046,140.226562 229.748047,113.582031 Z" id="Path-1" fill="#534539"></path>
                <rect id="Rectangle-7" fill="#A57259" x="0" y="310" width="484" height="21"></rect>
                <path d="M188.544922,409.248047 L170.904176,409.248047 C146.60825,409.248047 126.91251,389.546918 126.91251,365.250159 L126.91251,310.129568 L74.705597,310.129568 L74.705597,308.383482 C74.705597,296.23337 84.5492666,286.383759 96.7152565,286.383759 L128.937703,286.383759 C147.717541,286.383759 162.941608,301.607957 162.941608,320.381636 L162.941608,320.38783 C177.679352,320.38783 162.941608,365.34922 162.941608,365.34922 L195.525424,365.34922 L188.544922,409.248047 Z" id="Path-3" fill="#FFED6C"></path>
                <path d="M161,309 C161,273.101491 190.098994,244 226.006782,244 L335.993218,244 C371.895472,244 401,273.093598 401,309 L401,374 L176.167969,374 L161,374 L161,309 Z" id="Rectangle-6" fill="#DE1C39"></path>
                <path d="M184,309.996643 C184,286.802537 202.808077,268 225.997089,268 L337.002911,268 C360.197263,268 379,286.811396 379,309.996643 L379,409.248047 L303.269531,409.248047 L184,409.248047 L184,309.996643 Z" id="Rectangle-5" fill="#434343"></path>
            </g>
        </g>
    </g>
</svg>